<svg width="20" height="21" viewBox="0 0 20 21" fill="none" xmlns="http://www.w3.org/2000/svg">
<path fill-rule="evenodd" clip-rule="evenodd" d="M7.85734 8.36292H10.9523V9.90459C11.3982 9.01792 12.5415 8.22125 14.259 8.22125C17.5515 8.22125 18.3332 9.98625 18.3332 13.2246V19.2221H14.9998V13.9621C14.9998 12.1179 14.554 11.0779 13.419 11.0779C11.8448 11.0779 11.1907 12.1988 11.1907 13.9613V19.2221H7.85734V8.36292V8.36292ZM2.1415 19.0804H5.47484V8.22125H2.1415V19.0804V19.0804ZM5.95234 4.68042C5.95246 4.95982 5.89705 5.23645 5.78933 5.49424C5.6816 5.75204 5.52371 5.98585 5.32484 6.18209C4.92184 6.58261 4.37635 6.8068 3.80817 6.80542C3.241 6.80504 2.69676 6.58142 2.29317 6.18292C2.09501 5.98601 1.93766 5.75194 1.83012 5.49411C1.72259 5.23629 1.66699 4.95977 1.6665 4.68042C1.6665 4.11625 1.8915 3.57625 2.294 3.17792C2.69724 2.77889 3.2417 2.55517 3.809 2.55542C4.37734 2.55542 4.92234 2.77959 5.32484 3.17792C5.7265 3.57625 5.95234 4.11625 5.95234 4.68042Z" fill="white"/>
</svg>
