<svg width="48" height="48" viewBox="0 0 48 48" fill="none" xmlns="http://www.w3.org/2000/svg">
<path d="M0 11.2C0 5.01441 5.01441 0 11.2 0H36.8C42.9856 0 48 5.01441 48 11.2V36.8C48 42.9856 42.9856 48 36.8 48H11.2C5.01441 48 0 42.9856 0 36.8V11.2Z" fill="#486FF8" fill-opacity="0.8"/>
<path d="M24.0002 38.6668C32.1006 38.6668 38.6668 32.1006 38.6668 24.0002C38.6668 15.8998 32.1006 9.3335 24.0002 9.3335C15.8998 9.3335 9.3335 15.8998 9.3335 24.0002C9.3335 26.671 10.0478 29.1775 11.2959 31.3335L10.0668 37.9335L16.6668 36.7044C18.8955 37.9937 21.4254 38.6707 24.0002 38.6668Z" fill="#2C50CF"/>
<path fill-rule="evenodd" clip-rule="evenodd" d="M8.3335 24.0002C8.3335 15.3475 15.3475 8.3335 24.0002 8.3335C32.6528 8.3335 39.6668 15.3475 39.6668 24.0002C39.6668 32.6526 32.6533 39.6664 24.0009 39.6668C21.3753 39.6707 18.7932 39.0118 16.4931 37.754L10.2499 38.9166C9.92582 38.9769 9.59282 38.8737 9.35972 38.6406C9.12662 38.4075 9.02338 38.0745 9.08373 37.7504L10.2463 31.5074C9.02644 29.2781 8.3335 26.7174 8.3335 24.0002ZM24.0009 39.6668C24.0007 39.6668 24.0004 39.6668 24.0002 39.6668V38.6668L24.0017 39.6668C24.0014 39.6668 24.0012 39.6668 24.0009 39.6668ZM24.0002 10.3335C16.452 10.3335 10.3335 16.452 10.3335 24.0002C10.3335 26.4906 10.9991 28.8249 12.1613 30.8325C12.281 31.0391 12.3227 31.2818 12.279 31.5166L11.3168 36.6835L16.4838 35.7213C16.7184 35.6776 16.961 35.7193 17.1676 35.8388C19.2436 37.0398 21.6003 37.6705 23.9986 37.6668L24.0002 37.6668C31.5483 37.6668 37.6668 31.5483 37.6668 24.0002C37.6668 16.452 31.5483 10.3335 24.0002 10.3335Z" fill="#AABBF8"/>
<path fill-rule="evenodd" clip-rule="evenodd" d="M15.4413 22.7743C15.7663 22.4492 16.2072 22.2666 16.6669 22.2666C17.1266 22.2666 17.5675 22.4492 17.8926 22.7743C18.2176 23.0993 18.4003 23.5402 18.4003 23.9999C18.4003 24.4596 18.2176 24.9005 17.8926 25.2256C17.5675 25.5507 17.1266 25.7333 16.6669 25.7333C16.2072 25.7333 15.7663 25.5507 15.4413 25.2256C15.1162 24.9005 14.9336 24.4596 14.9336 23.9999C14.9336 23.5402 15.1162 23.0993 15.4413 22.7743ZM22.7746 22.7743C23.0997 22.4492 23.5406 22.2666 24.0003 22.2666C24.46 22.2666 24.9008 22.4492 25.2259 22.7743C25.551 23.0993 25.7336 23.5402 25.7336 23.9999C25.7336 24.4596 25.551 24.9005 25.2259 25.2256C24.9008 25.5507 24.46 25.7333 24.0003 25.7333C23.5406 25.7333 23.0997 25.5507 22.7746 25.2256C22.4495 24.9005 22.2669 24.4596 22.2669 23.9999C22.2669 23.5402 22.4495 23.0993 22.7746 22.7743ZM30.1079 22.7743C30.433 22.4492 30.8739 22.2666 31.3336 22.2666C31.7933 22.2666 32.2342 22.4492 32.5592 22.7743C32.8843 23.0993 33.0669 23.5402 33.0669 23.9999C33.0669 24.4596 32.8843 24.9005 32.5592 25.2256C32.2342 25.5507 31.7933 25.7333 31.3336 25.7333C30.8739 25.7333 30.433 25.5507 30.1079 25.2256C29.7829 24.9005 29.6003 24.4596 29.6003 23.9999C29.6003 23.5402 29.7829 23.0993 30.1079 22.7743Z" fill="#AABBF8"/>
<path d="M2.7959 3.79611C4.76972 2.05581 7.36146 1 10.1998 1H35.7998C41.9854 1 46.9998 6.01441 46.9998 12.2V37.8C46.9998 40.6383 45.944 43.2301 44.2037 45.2039C46.5314 43.1516 47.9998 40.1473 47.9998 36.8V11.2C47.9998 5.01441 42.9854 0 36.7998 0H11.1998C7.85254 0 4.84824 1.46837 2.7959 3.79611Z" fill="white" fill-opacity="0.2"/>
</svg>