<svg width="48" height="48" viewBox="0 0 48 48" fill="none" xmlns="http://www.w3.org/2000/svg">
<path d="M0 11.2C0 5.01441 5.01441 0 11.2 0H36.8C42.9856 0 48 5.01441 48 11.2V36.8C48 42.9856 42.9856 48 36.8 48H11.2C5.01441 48 0 42.9856 0 36.8V11.2Z" fill="#00A5CA" fill-opacity="0.8"/>
<path d="M9.3335 13.7334C9.3335 12.9554 9.64254 12.2093 10.1926 11.6592C10.7428 11.1091 11.4889 10.8 12.2668 10.8H35.7335C36.5115 10.8 37.2576 11.1091 37.8077 11.6592C38.3578 12.2093 38.6668 12.9554 38.6668 13.7334V18.4H9.3335V13.7334Z" fill="#007AAE"/>
<path fill-rule="evenodd" clip-rule="evenodd" d="M12.2668 11.55C11.6878 11.55 11.1324 11.7801 10.723 12.1895C10.3135 12.599 10.0835 13.1543 10.0835 13.7334V17.65H37.9168V13.7334C37.9168 13.1543 37.6868 12.599 37.2773 12.1895C36.8679 11.7801 36.3126 11.55 35.7335 11.55H12.2668ZM37.9168 19.15V26.1334C37.9168 26.5476 38.2526 26.8834 38.6668 26.8834C39.081 26.8834 39.4168 26.5476 39.4168 26.1334V13.7334C39.4168 12.7565 39.0288 11.8196 38.338 11.1289C37.6472 10.4381 36.7104 10.05 35.7335 10.05H12.2668C11.2899 10.05 10.3531 10.4381 9.66232 11.1289C8.97156 11.8196 8.5835 12.7565 8.5835 13.7334V34.2667C8.5835 35.2436 8.97156 36.1805 9.66232 36.8712C10.3531 37.562 11.2899 37.95 12.2668 37.95H24.6668C25.081 37.95 25.4168 37.6143 25.4168 37.2C25.4168 36.7858 25.081 36.45 24.6668 36.45H12.2668C11.6878 36.45 11.1324 36.22 10.723 35.8106C10.3135 35.4011 10.0835 34.8458 10.0835 34.2667V19.15H37.9168Z" fill="#94E4F8"/>
<path fill-rule="evenodd" clip-rule="evenodd" d="M31.7787 24.5565C32.6517 24.5518 33.5169 24.7201 34.3246 25.0515C35.1322 25.3829 35.8663 25.8709 36.4844 26.4874C37.1025 27.1039 37.5924 27.8367 37.9259 28.6435C38.2594 29.4503 38.4299 30.3151 38.4275 31.1881C38.4251 32.0611 38.2499 32.9249 37.912 33.7299C37.7047 34.2239 37.4386 34.6897 37.1203 35.1175L39.9749 37.9798C40.3649 38.3709 40.3641 39.004 39.973 39.394C39.582 39.784 38.9488 39.7832 38.5588 39.3921L35.6976 36.5233C34.5703 37.3412 33.2055 37.7875 31.7958 37.7837C30.051 37.779 28.3787 37.0849 27.1434 35.8527C25.908 34.6205 25.2096 32.95 25.2003 31.2052C25.191 29.4604 25.8716 27.7826 27.0938 26.5374C27.7053 25.9143 28.4342 25.4185 29.2382 25.0785C30.0423 24.7386 30.9057 24.5611 31.7787 24.5565ZM33.5653 26.9018C33.0019 26.6706 32.3983 26.5532 31.7893 26.5565C31.1803 26.5597 30.578 26.6835 30.0171 26.9206C29.4562 27.1578 28.9478 27.5037 28.5212 27.9383C27.6686 28.807 27.1938 29.9774 27.2003 31.1946C27.2067 32.4118 27.6939 33.5771 28.5557 34.4366C29.4175 35.2962 30.5841 35.7804 31.8013 35.7837C33.0185 35.787 34.1877 35.3092 35.0541 34.4543C35.4877 34.0266 35.8322 33.5173 36.0679 32.9558C36.3036 32.3943 36.4259 31.7916 36.4275 31.1826C36.4292 30.5736 36.3102 29.9703 36.0776 29.4075C35.8449 28.8447 35.5032 28.3335 35.072 27.9035C34.6408 27.4734 34.1287 27.133 33.5653 26.9018Z" fill="#94E4F8"/>
<path fill-rule="evenodd" clip-rule="evenodd" d="M14.5889 13.6068C15.0997 14.0712 15.1374 14.8618 14.673 15.3726L14.6583 15.3887C14.1939 15.8995 13.4034 15.9372 12.8926 15.4728C12.3817 15.0084 12.3441 14.2179 12.8085 13.707L12.8232 13.6909C13.2875 13.1801 14.0781 13.1424 14.5889 13.6068ZM18.9889 13.6068C19.4997 14.0712 19.5374 14.8618 19.073 15.3726L19.0583 15.3887C18.5939 15.8996 17.8034 15.9372 17.2925 15.4728C16.7817 15.0084 16.7441 14.2178 17.2085 13.707L17.2232 13.6909C17.6876 13.1801 18.4781 13.1424 18.9889 13.6068ZM23.3889 13.6068C23.8997 14.0712 23.9374 14.8618 23.473 15.3726L23.4583 15.3887C22.994 15.8995 22.2034 15.9372 21.6926 15.4728C21.1817 15.0084 21.1441 14.2179 21.6085 13.707L21.6231 13.6909C22.0875 13.1801 22.8781 13.1424 23.3889 13.6068Z" fill="#94E4F8"/>
<path d="M2.7959 3.79611C4.76972 2.05581 7.36146 1 10.1998 1H35.7998C41.9854 1 46.9998 6.01441 46.9998 12.2V37.8C46.9998 40.6383 45.944 43.2301 44.2037 45.2039C46.5314 43.1516 47.9998 40.1473 47.9998 36.8V11.2C47.9998 5.01441 42.9854 0 36.7998 0H11.1998C7.85254 0 4.84824 1.46837 2.7959 3.79611Z" fill="white" fill-opacity="0.2"/>
</svg>
