<svg width="48" height="48" viewBox="0 0 48 48" fill="none" xmlns="http://www.w3.org/2000/svg">
<path d="M0 11.2C0 5.01441 5.01441 0 11.2 0H36.8C42.9856 0 48 5.01441 48 11.2V36.8C48 42.9856 42.9856 48 36.8 48H11.2C5.01441 48 0 42.9856 0 36.8V11.2Z" fill="#00A5CA" fill-opacity="0.8"/>
<path fill-rule="evenodd" clip-rule="evenodd" d="M16.6402 18.1596C17.0308 18.5501 17.0308 19.1833 16.6402 19.5738L12.214 24L16.6402 28.4263C17.0308 28.8168 17.0308 29.4499 16.6402 29.8405C16.2497 30.231 15.6166 30.231 15.226 29.8405L10.0927 24.7071C9.70217 24.3166 9.70217 23.6835 10.0927 23.2929L15.226 18.1596C15.6166 17.7691 16.2497 17.7691 16.6402 18.1596ZM31.3594 18.1596C31.7499 17.7691 32.3831 17.7691 32.7736 18.1596L37.9069 23.2929C38.2974 23.6835 38.2974 24.3166 37.9069 24.7071L32.7736 29.8405C32.3831 30.231 31.7499 30.231 31.3594 29.8405C30.9688 29.4499 30.9688 28.8168 31.3594 28.4263L35.7856 24L31.3594 19.5738C30.9688 19.1833 30.9688 18.5501 31.3594 18.1596Z" fill="#94E4F8"/>
<path fill-rule="evenodd" clip-rule="evenodd" d="M26.4696 14.237C27.0015 14.3859 27.3119 14.9378 27.163 15.4696L22.0296 33.8029C21.8807 34.3348 21.3289 34.6452 20.797 34.4963C20.2652 34.3473 19.9548 33.7955 20.1037 33.2637L25.237 14.9303C25.3859 14.3985 25.9378 14.0881 26.4696 14.237Z" fill="#94E4F8"/>
<path d="M2.7959 3.79611C4.76972 2.05581 7.36146 1 10.1998 1H35.7998C41.9854 1 46.9998 6.01441 46.9998 12.2V37.8C46.9998 40.6383 45.944 43.2301 44.2037 45.2039C46.5314 43.1516 47.9998 40.1473 47.9998 36.8V11.2C47.9998 5.01441 42.9854 0 36.7998 0H11.1998C7.85254 0 4.84824 1.46837 2.7959 3.79611Z" fill="white" fill-opacity="0.2"/>
</svg>
