<svg width="48" height="48" viewBox="0 0 48 48" fill="none" xmlns="http://www.w3.org/2000/svg">
<path d="M0 11.2C0 5.01441 5.01441 0 11.2 0H36.8C42.9856 0 48 5.01441 48 11.2V36.8C48 42.9856 42.9856 48 36.8 48H11.2C5.01441 48 0 42.9856 0 36.8V11.2Z" fill="#486FF8" fill-opacity="0.8"/>
<path d="M24.0002 9.33325C15.8998 9.33325 9.3335 15.8995 9.3335 23.9999C9.3335 32.1003 15.8998 38.6666 24.0002 38.6666C32.1006 38.6666 38.6668 32.1003 38.6668 23.9999C38.6668 15.8995 32.1006 9.33325 24.0002 9.33325Z" fill="#2C50CF"/>
<path fill-rule="evenodd" clip-rule="evenodd" d="M8.5332 23.9999C8.5332 15.4576 15.4576 8.5332 23.9999 8.5332C32.5421 8.5332 39.4665 15.4576 39.4665 23.9999C39.4665 32.5421 32.5421 39.4665 23.9999 39.4665C15.4576 39.4665 8.5332 32.5421 8.5332 23.9999ZM23.9999 10.1332C16.3413 10.1332 10.1332 16.3413 10.1332 23.9999C10.1332 31.6584 16.3413 37.8665 23.9999 37.8665C31.6584 37.8665 37.8665 31.6584 37.8665 23.9999C37.8665 16.3413 31.6584 10.1332 23.9999 10.1332Z" fill="#AABBF8"/>
<path d="M18.1333 26.9332V31.4116C18.1333 35.0763 20.3353 38.6677 24 38.6677V38.6677C27.6646 38.6677 29.8666 35.0763 29.8666 31.4116V26.9332L24 16.6665L18.1333 26.9332Z" fill="#3C5CCD"/>
<path fill-rule="evenodd" clip-rule="evenodd" d="M24.0002 15.8667C24.2872 15.8667 24.5523 16.0205 24.6948 16.2698L30.5614 26.5365C30.6305 26.6573 30.6668 26.7941 30.6668 26.9334V37.4464C30.6668 37.7648 30.478 38.0529 30.1861 38.18C26.2409 39.8972 21.7594 39.8972 17.8142 38.18C17.5223 38.0529 17.3335 37.7648 17.3335 37.4464V26.9334C17.3335 26.7941 17.3698 26.6573 17.4389 26.5365L23.3056 16.2698C23.448 16.0205 23.7131 15.8667 24.0002 15.8667ZM18.9335 27.1458V36.9116C22.1905 38.1867 25.8098 38.1867 29.0668 36.9116V27.1458L24.0002 18.2792L18.9335 27.1458Z" fill="#AABBF8"/>
<path d="M18.1333 26.9333C18.1333 26.9333 19.7862 28.4 21.0666 28.4C22.347 28.4 24 26.9333 24 26.9333C24 26.9333 25.6529 28.4 26.9333 28.4C28.2137 28.4 29.8666 26.9333 29.8666 26.9333" stroke="#AABBF8" stroke-width="1.6" stroke-linecap="round" stroke-linejoin="round"/>
<path d="M2.7959 3.79611C4.76972 2.05581 7.36146 1 10.1998 1H35.7998C41.9854 1 46.9998 6.01441 46.9998 12.2V37.8C46.9998 40.6383 45.944 43.2301 44.2037 45.2039C46.5314 43.1516 47.9998 40.1473 47.9998 36.8V11.2C47.9998 5.01441 42.9854 0 36.7998 0H11.1998C7.85254 0 4.84824 1.46837 2.7959 3.79611Z" fill="white" fill-opacity="0.2"/>
</svg>