<svg width="502" height="602" viewBox="0 0 502 602" fill="none" xmlns="http://www.w3.org/2000/svg">
  <path d="M250.687 602C389.137 602 501.373 579.399 501.373 551.519C501.373 523.639 389.137 501.038 250.687 501.038C112.236 501.038 0 523.639 0 551.519C0 579.399 112.236 602 250.687 602Z" fill="#3898ec" />
  <path d="M130.521 543.341C134.081 531.959 144.826 525.823 162.304 520.746C173.437 517.512 187.493 516.06 209.499 511.599C220.234 509.423 227.801 505.238 227.801 505.238V517.446C227.801 517.446 154.741 531.867 143.373 550.762C137.823 559.988 139.532 582.705 165.622 585.042C157.654 586.206 144.514 584.195 137.468 577.055C128.734 568.206 126.424 556.442 130.521 543.341Z" fill="#282323" stroke="black" stroke-width="2.57742" stroke-miterlimit="10" stroke-linecap="round" stroke-linejoin="round" />
  <path d="M227.801 517.447C227.801 517.447 184.061 525.548 160.746 535.604C140.259 544.439 140.875 553.573 140.356 562.96C140.056 568.378 143.863 581.851 159.438 584.152C177.981 586.892 199.886 583.961 227.801 566.165V517.447Z" fill="#442C2A" />
  <path opacity="0.37" d="M140.356 562.96C140.776 555.365 140.457 547.936 151.17 540.696C150.696 543.319 150.64 545.963 150.493 548.628C150.193 554.046 163.27 546.988 178.846 549.289C195.084 551.688 204.629 570.27 227.801 557.797V566.165C199.886 583.961 177.981 586.891 159.438 584.152C143.863 581.851 140.056 568.378 140.356 562.96Z" fill="#442C2A" />
  <path d="M227.801 517.447C227.801 517.447 184.061 525.548 160.746 535.604C140.259 544.439 140.875 553.573 140.356 562.96C140.056 568.378 143.863 581.851 159.438 584.152C177.981 586.892 199.886 583.961 227.801 566.165V517.447Z" stroke="black" stroke-width="2.57742" stroke-miterlimit="10" stroke-linecap="round" stroke-linejoin="round" />
  <path d="M187.339 542.528C183.832 544.453 184.687 563.056 193.213 565.659M200.648 541.179C197.003 546.31 199.62 558.3 206.033 561.311M212.896 536.913C209.25 542.044 211.868 554.034 218.28 557.045" stroke="black" stroke-width="2.57742" stroke-miterlimit="10" stroke-linecap="round" stroke-linejoin="round" />
  <path d="M338.747 481.655C315.738 497.632 282.954 506.796 248.803 506.796C214.651 506.796 181.868 497.632 158.859 481.655C148.292 474.317 130.566 458.952 130.566 438.481C130.566 418.011 148.293 402.646 158.859 395.308C181.868 379.331 214.651 370.167 248.803 370.167C282.954 370.167 315.738 379.331 338.747 395.308C349.314 402.646 367.04 418.011 367.04 438.481C367.04 458.952 349.313 474.317 338.747 481.655Z" fill="#151E28" />
  <path d="M444.113 455.484C443.698 457.585 443.207 459.675 442.642 461.743C426.052 522.442 345.83 568.471 249.37 568.471C152.654 568.471 72.2615 522.197 55.9591 461.274C55.5006 459.568 55.0955 457.862 54.7543 456.135C54.2958 452.979 54.3918 449.78 55.0955 446.592C59.0724 428.712 80.8338 418.348 103.693 423.434C118.727 426.782 130.509 435.973 135.669 446.965C136.234 449.354 137.012 451.657 137.961 453.864C143.463 466.637 154.637 476.254 162.111 481.617C184.438 497.589 216.232 506.758 249.37 506.758C282.497 506.758 314.302 497.589 336.618 481.617C344.135 476.222 355.394 466.52 360.864 453.64C361.738 451.571 362.463 449.428 363.007 447.2C368.103 436.111 379.927 426.803 395.078 423.434C417.949 418.348 439.699 428.712 443.676 446.592C444.338 449.556 444.466 452.542 444.113 455.484Z" fill="#2A3749" />
  <path opacity="0.67" d="M443.677 446.592C443.565 446.097 443.439 445.605 443.299 445.117C442.936 446.862 442.522 448.596 442.057 450.318C425.466 511.017 345.245 557.045 248.784 557.045C152.068 557.045 71.6761 510.772 55.3737 449.848C55.1996 449.191 55.0333 448.532 54.8747 447.872C54.4026 450.602 54.3623 453.39 54.7553 456.134C55.0965 457.861 55.5016 459.567 55.9601 461.273C72.2625 522.196 152.655 568.47 249.371 568.47C345.831 568.47 426.053 522.441 442.643 461.742C443.208 459.674 443.699 457.584 444.114 455.483C444.466 452.542 444.338 449.556 443.677 446.592Z" fill="#151E28" />
  <path d="M444.113 455.484C443.698 457.585 443.207 459.675 442.642 461.743C426.052 522.442 345.83 568.471 249.37 568.471C152.654 568.471 72.2615 522.197 55.9591 461.274C55.5006 459.568 55.0955 457.862 54.7543 456.135C54.2958 452.979 54.3918 449.78 55.0955 446.592C59.0724 428.712 80.8338 418.348 103.693 423.434C118.727 426.782 130.509 435.973 135.669 446.965C136.234 449.354 137.012 451.657 137.961 453.864C143.463 466.637 154.637 476.254 162.111 481.617C184.438 497.589 216.232 506.758 249.37 506.758C282.497 506.758 314.302 497.589 336.618 481.617C344.135 476.222 355.394 466.52 360.864 453.64C361.738 451.571 362.463 449.428 363.007 447.2C368.103 436.111 379.927 426.803 395.078 423.434C417.949 418.348 439.699 428.712 443.676 446.592C444.338 449.556 444.466 452.542 444.113 455.484Z" stroke="black" stroke-width="2.57742" stroke-miterlimit="10" stroke-linecap="round" stroke-linejoin="round" />
  <path d="M250.687 474.343C303.771 474.343 346.805 459.719 346.805 441.68C346.805 423.641 303.771 409.018 250.687 409.018C197.602 409.018 154.569 423.641 154.569 441.68C154.569 459.719 197.602 474.343 250.687 474.343Z" fill="black" />
  <path d="M250.687 474.343C303.771 474.343 346.805 459.719 346.805 441.68C346.805 423.641 303.771 409.018 250.687 409.018C197.602 409.018 154.569 423.641 154.569 441.68C154.569 459.719 197.602 474.343 250.687 474.343Z" stroke="black" stroke-width="2.57742" stroke-miterlimit="10" stroke-linecap="round" stroke-linejoin="round" />
  <path d="M360.079 370.473H138.654C121.725 370.473 108.627 355.637 110.724 338.839L120.508 260.492C123.299 238.14 142.299 221.365 164.825 221.365H333.91C356.436 221.365 375.436 238.139 378.227 260.492L388.01 338.839C390.107 355.637 377.008 370.473 360.079 370.473Z" fill="#171717" />
  <path d="M162.69 287.537L160.577 314.228M337.618 287.537L339.731 314.228M360.079 370.473H138.654C121.725 370.473 108.627 355.637 110.724 338.839L120.508 260.492C123.299 238.14 142.299 221.365 164.825 221.365H333.91C356.436 221.365 375.436 238.139 378.227 260.492L388.01 338.839C390.107 355.637 377.008 370.473 360.079 370.473Z" stroke="black" stroke-width="2.57742" stroke-miterlimit="10" stroke-linecap="round" stroke-linejoin="round" />
  <path d="M360.079 370.473H138.654C121.725 370.473 108.627 355.637 110.724 338.839L120.508 260.492C123.299 238.14 142.299 221.365 164.825 221.365H333.91C356.436 221.365 375.436 238.139 378.227 260.492L388.01 338.839C390.107 355.637 377.008 370.473 360.079 370.473Z" fill="#171717" />
  <g opacity="0.24">
    <path d="M120.506 268.766C123.298 246.414 142.298 229.638 164.824 229.638H333.909C356.435 229.638 375.434 246.413 378.226 268.766L387.928 346.47C388.292 344.004 388.335 341.445 388.008 338.839L378.225 260.492C375.433 238.14 356.433 221.364 333.908 221.364H164.825C142.299 221.364 123.299 238.139 120.507 260.492L110.724 338.839C110.405 341.374 110.432 343.941 110.804 346.47L120.506 268.766Z" fill="black" />
    <path d="M174.666 229.639C174.666 229.639 187.767 231.936 188.898 239.248C189.795 245.061 189.645 248.989 191.932 251.277C194.219 253.565 199.443 258.379 209.975 258.379C204.08 252.484 203.964 231.937 202.431 231.937C200.898 231.937 197.092 221.715 197.092 221.715L191.932 219.374C191.932 219.372 173.055 221.737 174.666 229.639ZM314.691 229.639C314.691 229.639 301.59 231.936 300.46 239.248C299.562 245.061 299.712 248.989 297.425 251.277C295.137 253.565 289.914 258.379 279.382 258.379C285.277 252.484 285.393 231.937 286.926 231.937C288.459 231.937 292.265 221.715 292.265 221.715L297.425 219.374C297.425 219.372 316.301 221.737 314.691 229.639Z" fill="black" />
  </g>
  <path d="M162.69 287.537L160.577 314.228M337.618 287.537L339.731 314.228M360.079 370.473H138.654C121.725 370.473 108.627 355.637 110.724 338.839L120.508 260.492C123.299 238.14 142.299 221.365 164.825 221.365H333.91C356.436 221.365 375.436 238.139 378.227 260.492L388.01 338.839C390.107 355.637 377.008 370.473 360.079 370.473Z" stroke="black" stroke-width="2.57742" stroke-miterlimit="10" stroke-linecap="round" stroke-linejoin="round" />
  <path d="M220.896 176.711L185.807 174.871L169.42 176.711C169.42 176.711 158.388 184.901 158.388 187.163C158.388 189.424 159.471 207.679 159.471 207.679C159.471 207.679 185.389 211.147 188.122 213.88C190.856 216.612 207.348 231.935 207.348 231.935L223.272 225.756L231.591 203.58L220.896 176.711Z" fill="black" />
  <path d="M214.732 163.133H174.263C157.911 163.133 144.655 176.39 144.655 192.741C144.655 209.092 157.911 222.349 174.263 222.349H179.595C188.187 222.349 195.154 229.314 195.154 237.908V239.527C195.154 249.888 203.553 258.286 213.914 258.286V239.095C214.153 239.095 214.346 239.289 214.346 239.526V237.906C214.346 218.745 198.757 203.156 179.596 203.156H174.264C168.52 203.156 163.848 198.483 163.848 192.739C163.848 186.995 168.52 182.323 174.264 182.323H214.733L214.732 163.133Z" fill="#171717" />
  <path d="M212.215 225.921C207.322 212.648 194.546 203.158 179.595 203.158H174.263C168.519 203.158 163.847 198.485 163.847 192.741C163.847 186.997 168.519 182.325 174.263 182.325H214.732V163.133H174.263C157.911 163.133 144.655 176.39 144.655 192.741C144.655 209.092 157.911 222.349 174.263 222.349H179.595C188.187 222.349 195.154 229.314 195.154 237.908V239.527C195.154 249.888 203.553 258.286 213.914 258.286" stroke="black" stroke-width="2.57742" stroke-miterlimit="10" stroke-linecap="round" stroke-linejoin="round" />
  <path d="M267.313 176.711L302.402 174.871L318.789 176.711C318.789 176.711 329.821 184.901 329.821 187.163C329.821 189.424 328.738 207.679 328.738 207.679C328.738 207.679 302.82 211.147 300.086 213.88C297.353 216.613 280.86 231.935 280.86 231.935L264.937 225.756L256.618 203.58L267.313 176.711Z" fill="black" />
  <path d="M273.477 163.133H313.946C330.297 163.133 343.554 176.39 343.554 192.741C343.554 209.092 330.297 222.349 313.946 222.349H308.614C300.021 222.349 293.055 229.314 293.055 237.908V239.527C293.055 249.888 284.656 258.286 274.296 258.286V239.095C274.181 239.095 274.071 239.14 273.99 239.221C273.909 239.302 273.864 239.412 273.864 239.526V237.906C273.864 218.745 289.453 203.156 308.614 203.156H313.946C319.69 203.156 324.362 198.483 324.362 192.739C324.362 186.995 319.69 182.323 313.946 182.323H273.477V163.133Z" fill="#171717" />
  <path d="M275.994 225.921C280.887 212.648 293.662 203.158 308.614 203.158H313.946C319.69 203.158 324.362 198.485 324.362 192.741C324.362 186.997 319.69 182.325 313.946 182.325H273.477V163.133H313.946C330.297 163.133 343.554 176.39 343.554 192.741C343.554 209.092 330.297 222.349 313.946 222.349H308.614C300.021 222.349 293.055 229.314 293.055 237.908V239.527C293.055 249.888 284.656 258.286 274.296 258.286" stroke="black" stroke-width="2.57742" stroke-miterlimit="10" stroke-linecap="round" stroke-linejoin="round" />
  <path d="M246.082 243.193C269.047 243.193 287.664 224.576 287.664 201.611C287.664 178.646 269.047 160.029 246.082 160.029C223.116 160.029 204.499 178.646 204.499 201.611C204.499 224.576 223.116 243.193 246.082 243.193Z" fill="#171717" />
  <path d="M206.324 189.405C217.801 196.798 231.444 201.108 246.082 201.108C260.72 201.108 274.362 196.797 285.84 189.405C280.624 172.397 264.799 160.03 246.082 160.03C227.364 160.029 211.54 172.397 206.324 189.405Z" fill="#171717" />
  <path d="M246.082 243.193C269.047 243.193 287.664 224.576 287.664 201.611C287.664 178.646 269.047 160.029 246.082 160.029C223.116 160.029 204.499 178.646 204.499 201.611C204.499 224.576 223.116 243.193 246.082 243.193Z" stroke="black" stroke-width="2.57742" stroke-miterlimit="10" stroke-linecap="round" stroke-linejoin="round" />
  <path d="M246.082 225.756C232.537 225.756 221.559 214.777 221.559 201.233V182.85C221.559 181.222 222.206 179.66 223.357 178.509C224.508 177.357 226.07 176.711 227.698 176.711H264.466C266.095 176.711 267.656 177.357 268.807 178.509C269.959 179.66 270.606 181.222 270.606 182.85V201.233C270.604 214.777 259.626 225.756 246.082 225.756Z" fill="#FCDCC0" />
  <path d="M264.465 176.711H227.697C224.306 176.711 221.558 179.661 221.558 183.301V198.376C229.388 201.365 237.699 202.898 246.081 202.9C254.462 202.898 262.773 201.365 270.603 198.376V183.301C270.605 179.662 267.856 176.711 264.465 176.711Z" fill="#FFCEA3" />
  <path d="M246.082 225.756C232.537 225.756 221.559 214.777 221.559 201.233V182.85C221.559 181.222 222.206 179.66 223.357 178.509C224.508 177.357 226.07 176.711 227.698 176.711H264.466C266.095 176.711 267.656 177.357 268.807 178.509C269.959 179.66 270.606 181.222 270.606 182.85V201.233C270.604 214.777 259.626 225.756 246.082 225.756Z" stroke="black" stroke-width="2.57742" stroke-miterlimit="10" stroke-linecap="round" stroke-linejoin="round" />
  <path d="M249.764 502.01H272.631V574.849H249.764V502.01Z" fill="#607691" />
  <path d="M249.764 502.01H272.631V574.849H249.764V502.01ZM137.962 453.864C137.014 451.657 136.235 449.354 135.67 446.965C136.725 449.204 137.503 451.507 137.962 453.864ZM360.865 453.64C361.312 451.443 362.038 449.29 363.008 447.2C362.464 449.428 361.738 451.571 360.865 453.64Z" stroke="black" stroke-width="2.57742" stroke-miterlimit="10" stroke-linecap="round" stroke-linejoin="round" />
  <path d="M360.514 448.469H138.218C134.382 448.469 130.677 447.07 127.798 444.536C124.918 442.001 123.061 438.503 122.575 434.697L108.704 326.184C107.499 316.756 114.844 308.413 124.347 308.413H374.386C383.891 308.413 391.235 316.756 390.03 326.184L376.158 434.697C375.672 438.503 373.815 442.001 370.935 444.536C368.055 447.07 364.35 448.469 360.514 448.469Z" fill="#F0F0F0" />
  <path opacity="0.21" d="M376.158 427.925C375.672 431.73 373.815 435.228 370.936 437.763C368.056 440.298 364.351 441.696 360.515 441.696H138.218C134.382 441.696 130.677 440.298 127.798 437.763C124.918 435.228 123.061 431.73 122.575 427.925L108.903 320.973C108.547 322.687 108.48 324.447 108.703 326.183L122.575 434.696C123.061 438.502 124.918 442 127.798 444.534C130.677 447.069 134.382 448.468 138.218 448.468H360.514C364.35 448.468 368.055 447.069 370.935 444.534C373.814 442 375.671 438.502 376.157 434.696L390.029 326.183C390.252 324.447 390.185 322.687 389.829 320.973L376.158 427.925Z" fill="#7E7E7E" />
  <path opacity="0.21" d="M108.834 327.206C110.142 319.919 116.501 314.228 124.347 314.228H374.386C382.232 314.228 388.592 319.919 389.9 327.206L390.031 326.184C391.236 316.756 383.891 308.413 374.387 308.413H124.347C114.843 308.413 107.499 316.757 108.704 326.184L108.834 327.206Z" fill="#7E7E7E" />
  <path d="M360.514 448.469H138.218C134.382 448.469 130.677 447.07 127.798 444.536C124.918 442.001 123.061 438.503 122.575 434.697L108.704 326.184C107.499 316.756 114.844 308.413 124.347 308.413H374.386C383.891 308.413 391.235 316.756 390.03 326.184L376.158 434.697C375.672 438.503 373.815 442.001 370.935 444.536C368.055 447.07 364.35 448.469 360.514 448.469Z" stroke="black" stroke-width="2.57742" stroke-miterlimit="10" stroke-linecap="round" stroke-linejoin="round" />
  <path opacity="0.66" d="M259.95 371.779C257.668 371.779 255.48 370.873 253.867 369.26C252.254 367.647 251.348 365.459 251.348 363.177C251.348 362.847 251.37 362.522 251.406 362.202C250.548 362.039 249.676 361.955 248.803 361.952C240.973 361.952 234.627 368.299 234.627 376.127C234.627 383.955 240.974 390.303 248.803 390.303C256.631 390.303 262.978 383.955 262.978 376.127C262.978 374.495 262.688 372.934 262.18 371.475C261.454 371.675 260.704 371.777 259.95 371.779Z" fill="#B5B5B5" />
  <path d="M369.912 543.341C366.352 531.959 355.608 525.823 338.13 520.746C326.996 517.512 312.941 516.06 290.935 511.599C280.2 509.423 272.632 505.238 272.632 505.238V517.446C272.632 517.446 345.692 531.867 357.06 550.762C362.611 559.988 360.902 582.705 334.812 585.042C342.78 586.206 355.92 584.195 362.966 577.055C371.7 568.206 374.01 556.442 369.912 543.341Z" fill="#282323" stroke="black" stroke-width="2.57742" stroke-miterlimit="10" stroke-linecap="round" stroke-linejoin="round" />
  <path d="M272.632 517.447C272.632 517.447 316.373 525.548 339.688 535.604C360.175 544.439 359.559 553.573 360.078 562.96C360.377 568.378 356.571 581.851 340.996 584.152C322.453 586.892 300.548 583.961 272.632 566.165V517.447Z" fill="#442C2A" />
  <path opacity="0.37" d="M360.078 562.96C359.658 555.365 359.976 547.936 349.264 540.696C349.738 543.319 349.794 545.963 349.941 548.628C350.241 554.046 346.435 567.519 330.859 569.82C314.622 572.219 295.805 570.268 272.632 557.797V566.165C300.548 583.961 322.453 586.891 340.996 584.152C356.571 581.851 360.377 568.378 360.078 562.96Z" fill="#442C2A" />
  <path d="M272.632 517.447C272.632 517.447 316.373 525.548 339.688 535.604C360.175 544.439 359.559 553.573 360.078 562.96C360.377 568.378 356.571 581.851 340.996 584.152C322.453 586.892 300.548 583.961 272.632 566.165V517.447Z" stroke="black" stroke-width="2.57742" stroke-miterlimit="10" stroke-linecap="round" stroke-linejoin="round" />
  <path d="M313.095 542.528C316.602 544.453 315.747 563.056 307.221 565.659M299.786 541.179C303.431 546.31 300.814 558.3 294.401 561.311M287.538 536.913C291.183 542.044 288.566 554.034 282.154 557.045" stroke="black" stroke-width="2.57742" stroke-miterlimit="10" stroke-linecap="round" stroke-linejoin="round" />
  <path d="M208.602 247.526V304.193M280.592 247.526V287.537" stroke="black" stroke-width="3.86613" stroke-miterlimit="10" stroke-linecap="round" stroke-linejoin="round" />
  <path d="M280.592 299.553C285.495 299.553 289.47 295.578 289.47 290.675C289.47 285.771 285.495 281.796 280.592 281.796C275.688 281.796 271.713 285.771 271.713 290.675C271.713 295.578 275.688 299.553 280.592 299.553Z" fill="black" />
  <path d="M280.592 293.183C282.566 293.183 284.167 291.583 284.167 289.608C284.167 287.634 282.566 286.033 280.592 286.033C278.617 286.033 277.017 287.634 277.017 289.608C277.017 291.583 278.617 293.183 280.592 293.183Z" fill="#7E7E7E" />
  <path d="M246.082 194.71C208.94 194.71 178.831 164.602 178.831 127.461V49.3739H313.331V127.461C313.331 164.602 283.223 194.71 246.082 194.71Z" fill="#FCDCC0" />
  <path d="M246.082 185.407C208.94 185.407 178.831 155.298 178.831 118.157V127.461C178.831 164.603 208.94 194.71 246.081 194.71C283.222 194.71 313.33 164.602 313.33 127.461V118.157C313.331 155.298 283.223 185.407 246.082 185.407Z" fill="#FFCEA3" />
  <path d="M246.082 194.71C208.94 194.71 178.831 164.602 178.831 127.461V49.3739H313.331V127.461C313.331 164.602 283.223 194.71 246.082 194.71Z" stroke="black" stroke-width="2.57742" stroke-miterlimit="10" stroke-linecap="round" stroke-linejoin="round" />
  <path d="M313.91 57.1637C313.698 53.4991 313.505 49.8324 313.332 46.1636C268.507 48.28 223.586 47.9484 178.85 44.0514C178.554 48.199 178.28 52.3487 178.03 56.5016C180.079 58.3512 182.142 60.1848 184.22 62.0022C185.968 62.8743 188.21 64.0535 190.179 65.0728C199.136 69.745 211.635 75.768 223.521 78.0295C227.915 78.8771 232.514 79.2844 237.175 79.2524C257.361 79.0658 274.289 71.0394 281.423 67.7267C282.476 67.2341 283.384 66.8076 283.861 66.6135C284.306 66.4323 284.767 66.3384 285.309 66.315C286.558 66.2638 288.092 66.5911 289.87 66.9622C292.258 67.4612 294.971 68.0135 298.045 67.8461C301.558 67.6563 304.809 66.5495 307.84 64.5259C309.868 62.064 311.891 59.6096 313.91 57.1637Z" fill="#FFCEA3" />
  <path d="M281.41 16.6359C281.41 16.6359 227.581 -18.8881 182.991 20.7526C174.727 28.0998 171.363 38.6255 171.363 48.393V99.8346H178.832V62.5097C178.832 59.7908 180.719 57.587 183.045 57.587C186.849 57.587 207.678 68.6841 225.227 71.7409C251.749 76.3608 276.029 64.0312 281.16 62.2037C290.083 59.0253 297.387 70.0563 308.721 57.587H309.119C311.446 57.587 313.332 59.7908 313.332 62.5097V99.8346H320.802V48.6393C320.801 36.1998 306.279 4.59733 281.41 16.6359Z" fill="#231A17" />
  <g opacity="0.34">
    <path d="M171.363 92.8434H178.832V99.8346H171.363V92.8434ZM313.331 92.8434H320.801V99.8346H313.331V92.8434Z" fill="#231A17" />
  </g>
  <path d="M281.41 16.6359C281.41 16.6359 227.581 -18.8881 182.991 20.7526C174.727 28.0998 171.363 38.6255 171.363 48.393V99.8346H178.832V62.5097C178.832 59.7908 180.719 57.587 183.045 57.587C186.849 57.587 207.678 68.6841 225.227 71.7409C251.749 76.3608 276.029 64.0312 281.16 62.2037C290.083 59.0253 297.387 70.0563 308.721 57.587H309.119C311.446 57.587 313.332 59.7908 313.332 62.5097V99.8346H320.802V48.6393C320.801 36.1998 306.279 4.59733 281.41 16.6359Z" stroke="black" stroke-width="2.57742" stroke-miterlimit="10" stroke-linecap="round" stroke-linejoin="round" />
  <path d="M235.958 51.291C235.958 51.291 178.18 55.0419 165.866 24.3467M244.105 43.9256C244.105 43.9256 188.412 40.3644 173.913 9.73538" stroke="black" stroke-width="2.57742" stroke-miterlimit="10" stroke-linecap="round" stroke-linejoin="round" />
  <path d="M313.331 91.5266V126.464C320.761 126.464 326.785 118.644 326.785 108.995C326.785 99.3483 320.762 91.5266 313.331 91.5266Z" fill="#FCDCC0" />
  <path d="M313.331 93.4703V124.522C317.666 121.621 320.637 115.765 320.637 108.996C320.637 102.227 317.666 96.3704 313.331 93.4703Z" fill="#FFCEA3" />
  <path d="M313.331 91.5266V126.464C320.761 126.464 326.785 118.644 326.785 108.995C326.785 99.3483 320.762 91.5266 313.331 91.5266Z" stroke="black" stroke-width="2.57742" stroke-miterlimit="10" stroke-linecap="round" stroke-linejoin="round" />
  <path d="M178.831 91.5266V126.464C171.401 126.464 165.377 118.644 165.377 108.995C165.378 99.3483 171.401 91.5266 178.831 91.5266Z" fill="#FCDCC0" />
  <path d="M178.831 94.0684C174.945 97.1316 172.339 102.661 172.339 108.995C172.339 115.33 174.945 120.86 178.831 123.922V94.0684Z" fill="#FFCEA3" />
  <path d="M243.323 119.974L238.842 134.614C238.842 136.207 244.104 134.912 249.366 136.206M178.831 91.5266V126.464C171.401 126.464 165.377 118.644 165.377 108.995C165.378 99.3483 171.401 91.5266 178.831 91.5266Z" stroke="black" stroke-width="2.57742" stroke-miterlimit="10" stroke-linecap="round" stroke-linejoin="round" />
  <path d="M268.485 147.254C270.124 158.359 255.843 168.183 244.624 166.147" stroke="black" stroke-width="1.93306" stroke-miterlimit="10" stroke-linecap="round" stroke-linejoin="round" />
  <path d="M221.803 107.587C224.275 107.587 226.279 105.438 226.279 102.787C226.279 100.136 224.275 97.9868 221.803 97.9868C219.331 97.9868 217.327 100.136 217.327 102.787C217.327 105.438 219.331 107.587 221.803 107.587Z" stroke="black" stroke-width="1.28871" stroke-miterlimit="10" stroke-linecap="round" stroke-linejoin="round" />
  <path d="M221.803 107.587C224.275 107.587 226.279 105.438 226.279 102.787C226.279 100.136 224.275 97.9868 221.803 97.9868C219.331 97.9868 217.327 100.136 217.327 102.787C217.327 105.438 219.331 107.587 221.803 107.587Z" fill="black" />
  <path d="M206.342 92.6728C208.587 90.0179 213.844 88.1563 219.97 88.1563C224.841 88.1563 229.161 89.3334 231.856 91.1491" stroke="black" stroke-width="1.93306" stroke-miterlimit="10" stroke-linecap="round" stroke-linejoin="round" />
  <path d="M270.902 107.587C273.374 107.587 275.378 105.438 275.378 102.787C275.378 100.136 273.374 97.9868 270.902 97.9868C268.43 97.9868 266.426 100.136 266.426 102.787C266.426 105.438 268.43 107.587 270.902 107.587Z" stroke="black" stroke-width="1.28871" stroke-miterlimit="10" stroke-linecap="round" stroke-linejoin="round" />
  <path d="M270.902 107.587C273.374 107.587 275.378 105.438 275.378 102.787C275.378 100.136 273.374 97.9868 270.902 97.9868C268.43 97.9868 266.426 100.136 266.426 102.787C266.426 105.438 268.43 107.587 270.902 107.587Z" fill="black" />
  <path d="M286.363 92.6728C284.118 90.0179 278.861 88.1563 272.735 88.1563C267.864 88.1563 263.544 89.3334 260.849 91.1491" stroke="black" stroke-width="1.93306" stroke-miterlimit="10" stroke-linecap="round" stroke-linejoin="round" />
</svg>