<svg width="373" height="103" viewBox="0 0 373 103" fill="none" xmlns="http://www.w3.org/2000/svg">
<path d="M58.5 4H100V99H4V4H25C50.4627 4 62.7761 30.2986 58.5141 51.7501M25 21.0001V52.0001M80 21.0001V51.7501M80 82.5001V51.7501M25 52.0001V79C44.7805 79 55.5787 66.5247 58.5141 51.7501M25 52.0001H49.5M80 51.7501H58.5141" stroke="#3898EC" stroke-width="8"/>
<path d="M129.303 16.69C132.905 16.69 136.052 17.42 138.745 18.88C141.47 20.3076 143.563 22.3191 145.023 24.9147C146.483 27.5102 147.213 30.4789 147.213 33.8207C147.213 37.13 146.466 40.0824 144.974 42.678C143.514 45.2736 141.421 47.3176 138.696 48.81C136.003 50.27 132.872 51 129.303 51H115.725V16.69H129.303ZM128.573 42.5807C131.364 42.5807 133.554 41.8182 135.143 40.2933C136.733 38.7684 137.528 36.6109 137.528 33.8207C137.528 30.998 136.733 28.8242 135.143 27.2993C133.554 25.742 131.364 24.9633 128.573 24.9633H125.264V42.5807H128.573ZM177.598 37.0327C177.598 37.7789 177.549 38.5251 177.452 39.2713H159.396C159.494 40.7638 159.899 41.8831 160.613 42.6293C161.359 43.3431 162.3 43.7 163.436 43.7C165.026 43.7 166.161 42.9862 166.842 41.5587H177.014C176.592 43.4404 175.765 45.1276 174.532 46.62C173.331 48.08 171.806 49.2318 169.957 50.0753C168.108 50.9189 166.064 51.3407 163.825 51.3407C161.132 51.3407 158.731 50.7729 156.622 49.6373C154.546 48.5018 152.908 46.8796 151.707 44.7707C150.539 42.6618 149.955 40.1798 149.955 37.3247C149.955 34.4696 150.539 32.0038 151.707 29.9273C152.875 27.8184 154.497 26.1962 156.574 25.0607C158.683 23.9251 161.1 23.3573 163.825 23.3573C166.518 23.3573 168.903 23.9089 170.979 25.012C173.056 26.1151 174.678 27.7049 175.846 29.7813C177.014 31.8253 177.598 34.2424 177.598 37.0327ZM167.864 34.648C167.864 33.48 167.475 32.5716 166.696 31.9227C165.918 31.2413 164.944 30.9007 163.776 30.9007C162.608 30.9007 161.651 31.2251 160.905 31.874C160.159 32.4904 159.672 33.4151 159.445 34.648H167.864ZM194.593 41.9967L199.703 23.698H209.874L200.481 51H188.607L179.214 23.698H189.385L194.593 41.9967ZM239.192 37.0327C239.192 37.7789 239.143 38.5251 239.046 39.2713H220.99C221.088 40.7638 221.493 41.8831 222.207 42.6293C222.953 43.3431 223.894 43.7 225.03 43.7C226.619 43.7 227.755 42.9862 228.436 41.5587H238.608C238.186 43.4404 237.358 45.1276 236.126 46.62C234.925 48.08 233.4 49.2318 231.551 50.0753C229.702 50.9189 227.658 51.3407 225.419 51.3407C222.726 51.3407 220.325 50.7729 218.216 49.6373C216.14 48.5018 214.501 46.8796 213.301 44.7707C212.133 42.6618 211.549 40.1798 211.549 37.3247C211.549 34.4696 212.133 32.0038 213.301 29.9273C214.469 27.8184 216.091 26.1962 218.168 25.0607C220.276 23.9251 222.694 23.3573 225.419 23.3573C228.112 23.3573 230.496 23.9089 232.573 25.012C234.649 26.1151 236.272 27.7049 237.44 29.7813C238.608 31.8253 239.192 34.2424 239.192 37.0327ZM229.458 34.648C229.458 33.48 229.069 32.5716 228.29 31.9227C227.512 31.2413 226.538 30.9007 225.37 30.9007C224.202 30.9007 223.245 31.2251 222.499 31.874C221.753 32.4904 221.266 33.4151 221.039 34.648H229.458ZM252.634 14.9867V51H243.095V14.9867H252.634ZM270.768 51.3407C268.042 51.3407 265.593 50.7729 263.419 49.6373C261.278 48.5018 259.591 46.8796 258.358 44.7707C257.125 42.6618 256.508 40.1798 256.508 37.3247C256.508 34.502 257.125 32.0362 258.358 29.9273C259.623 27.8184 261.326 26.1962 263.468 25.0607C265.642 23.9251 268.091 23.3573 270.816 23.3573C273.542 23.3573 275.975 23.9251 278.116 25.0607C280.29 26.1962 281.994 27.8184 283.226 29.9273C284.492 32.0362 285.124 34.502 285.124 37.3247C285.124 40.1473 284.492 42.6293 283.226 44.7707C281.994 46.8796 280.29 48.5018 278.116 49.6373C275.943 50.7729 273.493 51.3407 270.768 51.3407ZM270.768 43.0673C272.098 43.0673 273.201 42.5807 274.077 41.6073C274.986 40.6016 275.44 39.174 275.44 37.3247C275.44 35.4753 274.986 34.064 274.077 33.0907C273.201 32.1173 272.114 31.6307 270.816 31.6307C269.519 31.6307 268.432 32.1173 267.556 33.0907C266.68 34.064 266.242 35.4753 266.242 37.3247C266.242 39.2064 266.664 40.634 267.507 41.6073C268.351 42.5807 269.438 43.0673 270.768 43.0673ZM298.544 27.494C299.29 26.2287 300.345 25.2229 301.707 24.4767C303.07 23.7304 304.676 23.3573 306.525 23.3573C308.699 23.3573 310.662 23.9251 312.414 25.0607C314.198 26.1962 315.593 27.8184 316.599 29.9273C317.637 32.0362 318.157 34.502 318.157 37.3247C318.157 40.1473 317.637 42.6293 316.599 44.7707C315.593 46.8796 314.198 48.5018 312.414 49.6373C310.662 50.7729 308.699 51.3407 306.525 51.3407C304.676 51.3407 303.07 50.9676 301.707 50.2213C300.377 49.4751 299.323 48.4693 298.544 47.204V64.0427H289.005V23.698H298.544V27.494ZM308.472 37.3247C308.472 35.5402 307.985 34.1613 307.012 33.188C306.071 32.1822 304.903 31.6793 303.508 31.6793C302.113 31.6793 300.929 32.1822 299.955 33.188C299.014 34.1938 298.544 35.5727 298.544 37.3247C298.544 39.1091 299.014 40.5042 299.955 41.51C300.929 42.5158 302.113 43.0187 303.508 43.0187C304.903 43.0187 306.071 42.5158 307.012 41.51C307.985 40.4718 308.472 39.0767 308.472 37.3247ZM348.169 37.0327C348.169 37.7789 348.12 38.5251 348.023 39.2713H329.967C330.065 40.7638 330.47 41.8831 331.184 42.6293C331.93 43.3431 332.871 43.7 334.007 43.7C335.597 43.7 336.732 42.9862 337.413 41.5587H347.585C347.163 43.4404 346.336 45.1276 345.103 46.62C343.902 48.08 342.377 49.2318 340.528 50.0753C338.679 50.9189 336.635 51.3407 334.396 51.3407C331.703 51.3407 329.302 50.7729 327.193 49.6373C325.117 48.5018 323.479 46.8796 322.278 44.7707C321.11 42.6618 320.526 40.1798 320.526 37.3247C320.526 34.4696 321.11 32.0038 322.278 29.9273C323.446 27.8184 325.068 26.1962 327.145 25.0607C329.254 23.9251 331.671 23.3573 334.396 23.3573C337.089 23.3573 339.474 23.9089 341.55 25.012C343.627 26.1151 345.249 27.7049 346.417 29.7813C347.585 31.8253 348.169 34.2424 348.169 37.0327ZM338.435 34.648C338.435 33.48 338.046 32.5716 337.267 31.9227C336.489 31.2413 335.515 30.9007 334.347 30.9007C333.179 30.9007 332.222 31.2251 331.476 31.874C330.73 32.4904 330.243 33.4151 330.016 34.648H338.435ZM361.611 28.516C362.682 26.9587 363.979 25.7258 365.504 24.8173C367.029 23.9089 368.668 23.4547 370.42 23.4547V33.626H367.743C365.667 33.626 364.125 34.0316 363.12 34.8427C362.114 35.6538 361.611 37.0651 361.611 39.0767V51H352.072V23.698H361.611V28.516Z" fill="#F0F0F0"/>
<path d="M134.304 66.1293V88H129.917V78.694H120.549V88H116.162V66.1293H120.549V75.122H129.917V66.1293H134.304ZM144.387 79.258C144.387 77.5033 144.732 75.9471 145.421 74.5893C146.131 73.2316 147.082 72.1871 148.272 71.456C149.484 70.7249 150.831 70.3593 152.314 70.3593C153.609 70.3593 154.737 70.6204 155.698 71.1427C156.68 71.6649 157.463 72.3229 158.048 73.1167V70.6413H162.466V88H158.048V85.462C157.484 86.2767 156.701 86.9556 155.698 87.4987C154.717 88.0209 153.578 88.282 152.283 88.282C150.821 88.282 149.484 87.906 148.272 87.154C147.082 86.402 146.131 85.3471 145.421 83.9893C144.732 82.6107 144.387 81.0336 144.387 79.258ZM158.048 79.3207C158.048 78.2553 157.839 77.3467 157.422 76.5947C157.004 75.8218 156.44 75.2369 155.73 74.84C155.019 74.4222 154.257 74.2133 153.442 74.2133C152.628 74.2133 151.876 74.4118 151.186 74.8087C150.497 75.2056 149.933 75.7904 149.494 76.5633C149.077 77.3153 148.868 78.2136 148.868 79.258C148.868 80.3024 149.077 81.2216 149.494 82.0153C149.933 82.7882 150.497 83.3836 151.186 83.8013C151.897 84.2191 152.649 84.428 153.442 84.428C154.257 84.428 155.019 84.2296 155.73 83.8327C156.44 83.4149 157.004 82.83 157.422 82.078C157.839 81.3051 158.048 80.386 158.048 79.3207ZM180.287 88.282C178.866 88.282 177.592 88.0313 176.464 87.53C175.336 87.0078 174.438 86.308 173.769 85.4307C173.122 84.5533 172.767 83.582 172.704 82.5167H177.122C177.206 83.1851 177.529 83.7387 178.093 84.1773C178.678 84.616 179.399 84.8353 180.255 84.8353C181.091 84.8353 181.738 84.6682 182.198 84.334C182.678 83.9998 182.919 83.5716 182.919 83.0493C182.919 82.4853 182.626 82.0676 182.041 81.796C181.477 81.5036 180.569 81.1902 179.315 80.856C178.02 80.5427 176.955 80.2189 176.119 79.8847C175.305 79.5504 174.594 79.0387 173.989 78.3493C173.404 77.66 173.111 76.7304 173.111 75.5607C173.111 74.5998 173.383 73.7224 173.926 72.9287C174.49 72.1349 175.284 71.5082 176.307 71.0487C177.352 70.5891 178.574 70.3593 179.973 70.3593C182.041 70.3593 183.692 70.8816 184.924 71.926C186.156 72.9496 186.835 74.3387 186.961 76.0933H182.762C182.699 75.404 182.407 74.8609 181.885 74.464C181.383 74.0462 180.704 73.8373 179.848 73.8373C179.054 73.8373 178.438 73.9836 177.999 74.276C177.582 74.5684 177.373 74.9758 177.373 75.498C177.373 76.0829 177.665 76.532 178.25 76.8453C178.835 77.1378 179.744 77.4407 180.976 77.754C182.229 78.0673 183.263 78.3911 184.078 78.7253C184.893 79.0596 185.592 79.5818 186.177 80.292C186.783 80.9813 187.096 81.9004 187.117 83.0493C187.117 84.052 186.835 84.9502 186.271 85.744C185.728 86.5378 184.934 87.1644 183.89 87.624C182.866 88.0627 181.665 88.282 180.287 88.282ZM196.484 79.258C196.484 77.5033 196.828 75.9471 197.518 74.5893C198.228 73.2316 199.178 72.1871 200.369 71.456C201.58 70.7249 202.928 70.3593 204.411 70.3593C205.706 70.3593 206.834 70.6204 207.795 71.1427C208.777 71.6649 209.56 72.3229 210.145 73.1167V70.6413H214.563V88H210.145V85.462C209.581 86.2767 208.798 86.9556 207.795 87.4987C206.813 88.0209 205.675 88.282 204.38 88.282C202.917 88.282 201.58 87.906 200.369 87.154C199.178 86.402 198.228 85.3471 197.518 83.9893C196.828 82.6107 196.484 81.0336 196.484 79.258ZM210.145 79.3207C210.145 78.2553 209.936 77.3467 209.518 76.5947C209.1 75.8218 208.536 75.2369 207.826 74.84C207.116 74.4222 206.354 74.2133 205.539 74.2133C204.724 74.2133 203.972 74.4118 203.283 74.8087C202.594 75.2056 202.03 75.7904 201.591 76.5633C201.173 77.3153 200.964 78.2136 200.964 79.258C200.964 80.3024 201.173 81.2216 201.591 82.0153C202.03 82.7882 202.594 83.3836 203.283 83.8013C203.993 84.2191 204.745 84.428 205.539 84.428C206.354 84.428 207.116 84.2296 207.826 83.8327C208.536 83.4149 209.1 82.83 209.518 82.078C209.936 81.3051 210.145 80.386 210.145 79.3207ZM235.36 70.3907C237.428 70.3907 239.099 71.0487 240.373 72.3647C241.647 73.6598 242.285 75.4771 242.285 77.8167V88H237.898V78.412C237.898 77.0333 237.553 75.9784 236.864 75.2473C236.175 74.4953 235.235 74.1193 234.044 74.1193C232.832 74.1193 231.871 74.4953 231.161 75.2473C230.472 75.9784 230.127 77.0333 230.127 78.412V88H225.741V70.6413H230.127V72.8033C230.712 72.0513 231.454 71.4664 232.352 71.0487C233.271 70.61 234.274 70.3907 235.36 70.3907Z" fill="#F0F0F0"/>
<rect x="255" y="76" width="118" height="4" fill="#3898EC"/>
</svg>
